#!OML:ASF F:\VICON\USERDATA\Patient Classification 1\PLAYGROUND\JustinFriday\JustinFriday.ASF
:FULLY-SPECIFIED
:DEGREES
2909
root 13.3821 23.0248 25.6975 -202.425 -179.803 -185.931
lowerback 30.9581 1.78047 2.95574
upperback 6.06495 3.70956 3.85279
thorax -10.213 1.69983 1.24963
lowerneck 12.962 -6.94177 -8.31806
upperneck 29.6661 -10.334 1.78655
head 7.79552 -5.64458 1.72613
rclavicle -3.67752e-014 -3.73715e-014
rhumerus 96.6851 -7.58117 -66.8274
rradius 46.3178
rwrist 23.7811
rhand -13.9497 -23.7787
rfingers 7.12502
rthumb 12.1776 -53.4042
lclavicle -3.67752e-014 -3.73715e-014
lhumerus 97.3205 3.43626 73.4214
lradius 45.2565
lwrist -39.4412
lhand -2.58554 11.045
lfingers 7.12502
lthumb 23.1117 39.6789
rfemur -53.8625 -1.98938 31.8373
rtibia 39.7227
rfoot -13.9713 4.24093
rtoes 38.9504
lfemur -55.5628 2.131 -9.11893
ltibia 39.106
lfoot 2.56939 -0.582087
ltoes 61.1449
2910
root 13.378 23.089 25.5801 -201.503 -180.03 -185.971
lowerback 30.7614 1.88675 3.13239
upperback 5.85847 3.90205 3.82643
thorax -10.3437 1.78186 1.04658
lowerneck 13.6248 -7.28266 -7.86043
upperneck 28.8818 -10.6586 1.2324
head 7.38189 -5.78229 1.49706
rclavicle -2.96438e-014 1.59028e-015
rhumerus 96.4394 -7.80848 -67.1371
rradius 46.9413
rwrist 24.432
rhand -14.5297 -21.535
rfingers 7.12502
rthumb 11.6183 -51.1929
lclavicle -2.96438e-014 1.59028e-015
lhumerus 97.88 2.89052 73.8812
lradius 44.946
lwrist -39.6439
lhand -1.23246 7.54191
lfingers 7.12502
lthumb 24.4094 36.007
rfemur -54.5303 -2.07376 31.4088
rtibia 39.101
rfoot -13.7312 4.18194
rtoes 35.9005
lfemur -55.8106 1.03001 -8.34558
ltibia 37.6078
lfoot 1.06727 -1.61346
ltoes 60.9459
2911
root 13.3791 23.1485 25.4696 -200.642 -180.25 -186.17
lowerback 30.5673 2.01462 3.8159
upperback 5.58879 4.28956 3.81533
thorax -10.5105 1.9367 0.495376
lowerneck 14.6898 -7.73571 -7.73515
upperneck 27.9777 -11.2684 1.13581
head 6.93273 -6.06162 1.4887
rclavicle 3.0265e-014 1.78906e-014
rhumerus 95.876 -8.5289 -66.963
rradius 47.4186
rwrist 24.8837
rhand -16.2377 -20.8166
rfingers 7.12502
rthumb 9.97088 -50.5604
lclavicle 3.0265e-014 1.78906e-014
lhumerus 97.3937 1.15421 75.0068
lradius 45.3169
lwrist -40.6347
lhand -0.525904 3.91613
lfingers 7.12502
lthumb 25.0866 32.2883
rfemur -55.11 -2.64506 31.5121
rtibia 38.7226
rfoot -14.148 4.71878
rtoes 34.4157
lfemur -56.1147 -0.45112 -7.13688
ltibia 36.5896
lfoot 0.311745 -3.5955
ltoes 61.0503
2912
root 13.3813 23.1944 25.3709 -199.833 -180.704 -185.94
lowerback 30.4954 2.3102 4.317
upperback 5.1925 4.83945 3.70387
thorax -10.8768 2.16123 -0.132228
lowerneck 15.7122 -8.4563 -6.80557
upperneck 27.3527 -11.9815 0.204989
head 6.49441 -6.35528 1.08682
rclavicle -4.35338e-014 -1.03368e-014
rhumerus 94.9342 -9.6633 -66.2102
rradius 47.626
rwrist 25.1615
rhand -13.6816 -21.3769
rfingers 7.12502
rthumb 12.4361 -50.9869
lclavicle -4.35338e-014 -1.03368e-014
lhumerus 96.7616 -0.62301 76.2181
lradius 46.4233
lwrist -41.0799
lhand 2.40579 0.528078
lfingers 7.12502
lthumb 27.8926 28.4769
rfemur -55.7198 -3.25095 31.1014
rtibia 38.6647
rfoot -15.2111 5.49062
rtoes 33.3005
lfemur -56.4675 0.0579344 -8.0648
ltibia 35.8119
lfoot 1.40784 -3.73828
ltoes 61.1815
2913
root 13.385 23.2333 25.2692 -199.153 -181.243 -185.568
lowerback 30.458 2.48526 4.45149
upperback 4.89537 5.10735 3.54726
thorax -11.1701 2.26616 -0.494456
lowerneck 16.3278 -9.04547 -5.70305
upperneck 26.8724 -12.4477 -0.899125
head 6.12094 -6.5227 0.602682
rclavicle 2.53202e-014 5.56597e-015
rhumerus 94.2969 -10.3118 -65.804
rradius 47.8891
rwrist 25.4852
rhand -14.143 -21.1498
rfingers 7.12502
rthumb 11.9912 -50.7863
lclavicle 2.53202e-014 5.56597e-015
lhumerus 96.1954 -1.57703 76.5375
lradius 46.7043
lwrist -40.9277
lhand -1.43038 3.76421
lfingers 7.12502
lthumb 24.2196 32.2547
rfemur -56.2154 -3.85004 30.431
rtibia 38.7407
rfoot -16.3999 6.19533
rtoes 32.5876
lfemur -56.5512 0.0812814 -8.90317
ltibia 35.1907
lfoot 2.11365 -4.04024
ltoes 60.9549
2914
root 13.3878 23.2865 25.1315 -198.616 -181.741 -185.216
lowerback 30.4529 2.51607 4.39909
upperback 4.78443 5.11351 3.35776
thorax -11.2815 2.2628 -0.685264
lowerneck 16.7533 -9.3474 -5.00509
upperneck 26.2294 -12.6779 -1.42246
head 5.77093 -6.58766 0.371137
rclavicle -4.11981e-014 6.36111e-015
rhumerus 94.0545 -10.5289 -65.8849
rradius 48.3937
rwrist 25.8988
rhand -12.4668 -21.8841
rfingers 7.12502
rthumb 13.6072 -51.4194
lclavicle -4.11981e-014 6.36111e-015
lhumerus 95.921 -2.10704 76.6736
lradius 46.8243
lwrist -40.9943
lhand -3.42357 5.34019
lfingers 7.12502
lthumb 22.3074 34.0725
rfemur -56.466 -4.81621 30.189
rtibia 38.9376
rfoot -16.7799 5.8446
rtoes 31.0912
lfemur -56.3368 0.0819515 -9.72704
ltibia 34.6292
lfoot 2.5791 -4.12333
ltoes 60.8964
2915
root 13.3872 23.3321 24.986 -198.292 -182.104 -184.769
lowerback 30.6139 2.57695 4.25471
upperback 4.78856 5.12539 3.13109
thorax -11.3458 2.26646 -0.873428
lowerneck 17.1286 -9.59568 -4.35953
upperneck 25.5411 -12.8596 -1.83415
head 5.42295 -6.62942 0.186112
rclavicle -1.30204e-014 -1.39149e-014
rhumerus 93.8633 -10.721 -66.103
rradius 49.1655
rwrist 26.3482
rhand -9.89059 -22.4602
rfingers 7.12502
rthumb 16.089 -51.8123
lclavicle -1.30204e-014 -1.39149e-014
lhumerus 95.8633 -2.65075 76.7765
lradius 46.8191
lwrist -41.1712
lhand -4.66006 3.9876
lfingers 7.12502
lthumb 21.12 32.8573
rfemur -56.337 -4.93161 29.3165
rtibia 39.0861
rfoot -17.2426 4.77264
rtoes 30.4995
lfemur -55.7835 0.2116 -10.6002
ltibia 34.127
lfoot 2.74629 -4.05237
ltoes 60.9272
2916
root 13.3801 23.3634 24.8398 -198.042 -182.226 -184.778
lowerback 31.0521 2.57815 4.492
upperback 4.31076 5.23322 3.03853
thorax -11.2554 2.28981 -1.12924
lowerneck 17.4903 -9.83299 -4.03508
upperneck 24.996 -13.0742 -2.20342
head 5.15159 -6.7145 0.059597
rclavicle 3.05631e-014 -3.57812e-015
rhumerus 93.4697 -10.9737 -65.6049
rradius 47.9469
rwrist 26.1003
rhand -17.1466 -20.5597
rfingers 7.12502
rthumb 9.09391 -50.3436
lclavicle 3.05631e-014 -3.57812e-015
lhumerus 96.2955 -2.22725 76.1108
lradius 46.4834
lwrist -40.1597
lhand -5.03381 3.76939
lfingers 7.12502
lthumb 20.7609 32.6788
rfemur -56.0218 -4.47754 28.6994
rtibia 39.2207
rfoot -17.985 3.2781
rtoes 29.559
lfemur -55.1355 0.511089 -10.9014
ltibia 33.6692
lfoot 2.61361 -3.65499
ltoes 61.4401
2917
root 13.3674 23.386 24.6887 -197.731 -182.511 -184.915
lowerback 31.3846 2.49413 4.68649
upperback 4.16957 5.21875 3.02646
thorax -11.5353 2.26202 -1.25888
lowerneck 17.7179 -10.0156 -3.80531
upperneck 24.5742 -13.2216 -2.62234
head 4.94048 -6.77751 -0.0766708
rclavicle 1.73937e-015 -1.82882e-014
rhumerus 93.4529 -11.1447 -65.4786
rradius 47.7337
rwrist 26.0682
rhand -15.858 -20.8445
rfingers 7.12502
rthumb 10.3371 -50.5704
lclavicle 1.73937e-015 -1.82882e-014
lhumerus 95.755 -2.55881 76.0575
lradius 46.5722
lwrist -40.2547
lhand -6.13424 3.74723
lfingers 7.12502
lthumb 19.7033 32.7687
rfemur -55.7173 -4.15795 28.1649
rtibia 39.227
rfoot -18.6315 1.57067
rtoes 30.0496
lfemur -54.6407 0.653115 -11.116
ltibia 33.4649
lfoot 2.30053 -3.11518
ltoes 60.3674
2918
root 13.3601 23.4147 24.5411 -197.429 -182.758 -184.693
lowerback 31.6101 2.45124 4.62741
upperback 4.07366 5.14548 2.88992
thorax -11.7323 2.21942 -1.35842
lowerneck 17.7552 -10.1795 -3.23552
upperneck 24.218 -13.2812 -3.16916
head 4.74083 -6.77571 -0.311855
rclavicle -2.56929e-014 -2.70347e-014
rhumerus 93.5686 -11.1113 -65.6404
rradius 47.2222
rwrist 26.2508
rhand -15.6386 -20.9518
rfingers 7.12502
rthumb 10.5488 -50.6671
lclavicle -2.56929e-014 -2.70347e-014
lhumerus 95.7783 -2.36236 75.4849
lradius 45.8841
lwrist -39.7252
lhand -7.5728 3.70838
lfingers 7.12502
lthumb 18.3199 32.8657
rfemur -55.3072 -4.26441 27.6186
rtibia 39.1365
rfoot -18.7824 0.159554
rtoes 30.5223
lfemur -54.0727 0.86903 -11.7105
ltibia 33.5414
lfoot 1.93215 -2.79282
ltoes 60.2258
2919
root 13.3524 23.4365 24.4059 -197.223 -182.737 -184.893
lowerback 32 2.43647 5.04075
upperback 3.88731 5.29931 2.85016
thorax -12.0571 2.25458 -1.69993
lowerneck 17.9539 -10.3761 -2.84664
upperneck 23.8517 -13.4628 -3.35899
head 4.55642 -6.83451 -0.401215
rclavicle 1.90336e-014 3.97569e-015
rhumerus 93.4689 -11.2022 -65.7192
rradius 46.6127
rwrist 26.4764
rhand -17.3321 -21.4633
rfingers 7.12502
rthumb 8.91492 -51.2549
lclavicle 1.90336e-014 3.97569e-015
lhumerus 95.8783 -2.37348 74.9364
lradius 45.2123
lwrist -39.1126
lhand -8.67879 4.03896
lfingers 7.12502
lthumb 17.2556 33.2929
rfemur -54.7426 -4.64505 27.9937
rtibia 39.0112
rfoot -18.7745 -1.18414
rtoes 28.0942
lfemur -53.446 1.27374 -11.7681
ltibia 33.8178
lfoot 1.59822 -2.37741
ltoes 59.8929
2920
root 13.3467 23.4511 24.2828 -196.857 -182.61 -184.956
lowerback 32.0891 2.54179 5.27708
upperback 3.73511 5.52637 2.81167
thorax -12.2291 2.33673 -1.96148
lowerneck 18.4952 -10.4928 -2.93792
upperneck 23.233 -13.6782 -3.05837
head 4.31656 -6.92897 -0.245428
rclavicle -6.65929e-015 -1.35174e-014
rhumerus 93.4213 -11.4135 -65.7099
rradius 46.2136
rwrist 26.6253
rhand -17.8653 -21.4834
rfingers 7.12502
rthumb 8.4003 -51.2963
lclavicle -6.65929e-015 -1.35174e-014
lhumerus 95.8552 -2.66749 74.8119
lradius 45.0304
lwrist -38.9336
lhand -9.15943 4.53419
lfingers 7.12502
lthumb 16.793 33.828
rfemur -54.327 -5.21953 28.5949
rtibia 38.8488
rfoot -18.5791 -2.63854
rtoes 25.8626
lfemur -52.9559 1.82224 -11.9289
ltibia 34.2381
lfoot 1.06628 -1.92169
ltoes 59.4453
2921
root 13.3421 23.4636 24.1622 -196.421 -182.703 -184.573
lowerback 31.8685 2.57281 5.03161
upperback 3.6804 5.44645 2.64857
thorax -12.2093 2.30966 -1.96852
lowerneck 19.6105 -10.5006 -2.79913
upperneck 21.8252 -13.7007 -2.98742
head 4.17434 -6.90781 -0.237204
rclavicle -2.83268e-014 1.03368e-014
rhumerus 93.7047 -11.2352 -66.0527
rradius 45.7114
rwrist 26.9053
rhand -11.1219 -24.4437
rfingers 7.12502
rthumb 14.903 -53.8877
lclavicle -2.83268e-014 1.03368e-014
lhumerus 95.8011 -2.62708 74.6317
lradius 45.0243
lwrist -38.8692
lhand -8.78454 5.18501
lfingers 7.12502
lthumb 17.1538 34.4478
rfemur -53.8825 -5.47915 28.2465
rtibia 38.6829
rfoot -18.4419 -4.23507
rtoes 24.9407
lfemur -52.4553 2.22539 -12.6326
ltibia 34.7133
lfoot 0.727326 -1.34694
ltoes 58.3983
2922
root 13.3396 23.4768 24.0444 -196.008 -182.924 -184.228
lowerback 31.7678 2.54458 4.84078
upperback 3.61121 5.31829 2.47875
thorax -12.2524 2.25486 -1.99896
lowerneck 19.6046 -10.6599 -1.88584
upperneck 21.5522 -13.6618 -3.8498
head 3.91912 -6.83615 -0.634328
rclavicle 5.32743e-014 1.03368e-014
rhumerus 94.0454 -11.088 -66.3756
rradius 45.1134
rwrist 27.1742
rhand -5.52068 -26.8164
rfingers 7.12502
rthumb 20.2931 -55.7762
lclavicle 5.32743e-014 1.03368e-014
lhumerus 95.9013 -2.51973 74.2526
lradius 44.209
lwrist -38.6242
lhand -10.3786 5.53102
lfingers 7.12502
lthumb 15.619 34.9204
rfemur -53.3687 -5.36398 27.3896
rtibia 38.6264
rfoot -18.5151 -5.64612
rtoes 25.5456
lfemur -51.7106 1.92347 -12.9711
ltibia 35.0322
lfoot 0.030005 -0.925362
ltoes 56.3182
2923
root 13.3371 23.4954 23.9194 -195.612 -183.113 -184.139
lowerback 31.5614 2.49546 5.0225
upperback 3.58656 5.28865 2.35537
thorax -12.1647 2.23564 -2.2068
lowerneck 19.4956 -10.8086 -1.4772
upperneck 21.3321 -13.7438 -4.26421
head 3.78258 -6.85283 -0.817484
rclavicle -2.21148e-014 -1.59028e-015
rhumerus 94.1543 -11.2265 -66.3827
rradius 43.8916
rwrist 27.2457
rhand -4.6919 -27.2724
rfingers 7.12502
rthumb 21.0894 -56.1456
lclavicle -2.21148e-014 -1.59028e-015
lhumerus 96.2903 -2.61698 73.8438
lradius 42.7823
lwrist -38.3156
lhand -14.6352 5.47533
lfingers 7.12502
lthumb 11.5165 35.139
rfemur -52.9036 -5.29611 26.7947
rtibia 38.6364
rfoot -18.2193 -6.99373
rtoes 25.2098
lfemur -50.8509 1.61448 -13.0447
ltibia 35.2103
lfoot -0.348627 -0.256118
ltoes 53.2069
